G75*
%MOIN*%
%OFA0B0*%
%FSLAX25Y25*%
%IPPOS*%
%LPD*%
%AMOC8*
5,1,8,0,0,1.08239X$1,22.5*
%
%ADD10C,0.01600*%
%ADD11C,0.06600*%
%ADD12R,0.08000X0.08000*%
%ADD13C,0.08000*%
%ADD14C,0.07400*%
%ADD15R,0.07400X0.07400*%
%ADD16C,0.00000*%
%ADD17C,0.06000*%
%ADD18C,0.01300*%
D10*
X0015000Y0062524D02*
X0005000Y0072524D01*
X0005000Y0282524D01*
X0010000Y0287524D01*
X0055000Y0287524D01*
X0065000Y0297524D01*
X0195000Y0297524D01*
X0205000Y0287524D01*
X0215000Y0287524D01*
X0215000Y0072524D01*
X0205000Y0062524D01*
X0015000Y0062524D01*
D11*
X0055000Y0182524D03*
X0055000Y0222524D03*
X0110000Y0222524D03*
X0110000Y0182524D03*
X0170000Y0182524D03*
X0170000Y0222524D03*
D12*
X0150000Y0272524D03*
D13*
X0169685Y0272524D03*
X0155000Y0242524D03*
X0125000Y0242524D03*
X0095000Y0242524D03*
X0070000Y0242524D03*
X0040000Y0242524D03*
X0185000Y0242524D03*
D14*
X0205000Y0247524D03*
X0205000Y0237524D03*
X0205000Y0227524D03*
X0205000Y0207524D03*
X0205000Y0197524D03*
X0205000Y0187524D03*
X0205000Y0177524D03*
X0205000Y0167524D03*
X0205000Y0157524D03*
X0205000Y0147524D03*
X0205000Y0137524D03*
X0127500Y0142524D03*
X0122500Y0132524D03*
X0117500Y0142524D03*
X0112500Y0132524D03*
X0107500Y0142524D03*
X0097500Y0142524D03*
X0102500Y0132524D03*
X0015000Y0132524D03*
X0015000Y0142524D03*
X0015000Y0152524D03*
X0015000Y0162524D03*
X0015000Y0172524D03*
X0015000Y0182524D03*
X0015000Y0192524D03*
X0015000Y0207524D03*
X0015000Y0217524D03*
X0015000Y0227524D03*
X0015000Y0237524D03*
X0015000Y0247524D03*
X0015000Y0257524D03*
X0015000Y0267524D03*
X0015000Y0277524D03*
X0015000Y0122524D03*
X0015000Y0112524D03*
X0015000Y0102524D03*
X0205000Y0257524D03*
X0205000Y0267524D03*
X0205000Y0277524D03*
D15*
X0092500Y0132524D03*
D16*
X0081201Y0107524D02*
X0081203Y0107682D01*
X0081209Y0107840D01*
X0081219Y0107998D01*
X0081233Y0108156D01*
X0081251Y0108313D01*
X0081272Y0108470D01*
X0081298Y0108626D01*
X0081328Y0108782D01*
X0081361Y0108937D01*
X0081399Y0109090D01*
X0081440Y0109243D01*
X0081485Y0109395D01*
X0081534Y0109546D01*
X0081587Y0109695D01*
X0081643Y0109843D01*
X0081703Y0109989D01*
X0081767Y0110134D01*
X0081835Y0110277D01*
X0081906Y0110419D01*
X0081980Y0110559D01*
X0082058Y0110696D01*
X0082140Y0110832D01*
X0082224Y0110966D01*
X0082313Y0111097D01*
X0082404Y0111226D01*
X0082499Y0111353D01*
X0082596Y0111478D01*
X0082697Y0111600D01*
X0082801Y0111719D01*
X0082908Y0111836D01*
X0083018Y0111950D01*
X0083131Y0112061D01*
X0083246Y0112170D01*
X0083364Y0112275D01*
X0083485Y0112377D01*
X0083608Y0112477D01*
X0083734Y0112573D01*
X0083862Y0112666D01*
X0083992Y0112756D01*
X0084125Y0112842D01*
X0084260Y0112926D01*
X0084396Y0113005D01*
X0084535Y0113082D01*
X0084676Y0113154D01*
X0084818Y0113224D01*
X0084962Y0113289D01*
X0085108Y0113351D01*
X0085255Y0113409D01*
X0085404Y0113464D01*
X0085554Y0113515D01*
X0085705Y0113562D01*
X0085857Y0113605D01*
X0086010Y0113644D01*
X0086165Y0113680D01*
X0086320Y0113711D01*
X0086476Y0113739D01*
X0086632Y0113763D01*
X0086789Y0113783D01*
X0086947Y0113799D01*
X0087104Y0113811D01*
X0087263Y0113819D01*
X0087421Y0113823D01*
X0087579Y0113823D01*
X0087737Y0113819D01*
X0087896Y0113811D01*
X0088053Y0113799D01*
X0088211Y0113783D01*
X0088368Y0113763D01*
X0088524Y0113739D01*
X0088680Y0113711D01*
X0088835Y0113680D01*
X0088990Y0113644D01*
X0089143Y0113605D01*
X0089295Y0113562D01*
X0089446Y0113515D01*
X0089596Y0113464D01*
X0089745Y0113409D01*
X0089892Y0113351D01*
X0090038Y0113289D01*
X0090182Y0113224D01*
X0090324Y0113154D01*
X0090465Y0113082D01*
X0090604Y0113005D01*
X0090740Y0112926D01*
X0090875Y0112842D01*
X0091008Y0112756D01*
X0091138Y0112666D01*
X0091266Y0112573D01*
X0091392Y0112477D01*
X0091515Y0112377D01*
X0091636Y0112275D01*
X0091754Y0112170D01*
X0091869Y0112061D01*
X0091982Y0111950D01*
X0092092Y0111836D01*
X0092199Y0111719D01*
X0092303Y0111600D01*
X0092404Y0111478D01*
X0092501Y0111353D01*
X0092596Y0111226D01*
X0092687Y0111097D01*
X0092776Y0110966D01*
X0092860Y0110832D01*
X0092942Y0110696D01*
X0093020Y0110559D01*
X0093094Y0110419D01*
X0093165Y0110277D01*
X0093233Y0110134D01*
X0093297Y0109989D01*
X0093357Y0109843D01*
X0093413Y0109695D01*
X0093466Y0109546D01*
X0093515Y0109395D01*
X0093560Y0109243D01*
X0093601Y0109090D01*
X0093639Y0108937D01*
X0093672Y0108782D01*
X0093702Y0108626D01*
X0093728Y0108470D01*
X0093749Y0108313D01*
X0093767Y0108156D01*
X0093781Y0107998D01*
X0093791Y0107840D01*
X0093797Y0107682D01*
X0093799Y0107524D01*
X0093797Y0107366D01*
X0093791Y0107208D01*
X0093781Y0107050D01*
X0093767Y0106892D01*
X0093749Y0106735D01*
X0093728Y0106578D01*
X0093702Y0106422D01*
X0093672Y0106266D01*
X0093639Y0106111D01*
X0093601Y0105958D01*
X0093560Y0105805D01*
X0093515Y0105653D01*
X0093466Y0105502D01*
X0093413Y0105353D01*
X0093357Y0105205D01*
X0093297Y0105059D01*
X0093233Y0104914D01*
X0093165Y0104771D01*
X0093094Y0104629D01*
X0093020Y0104489D01*
X0092942Y0104352D01*
X0092860Y0104216D01*
X0092776Y0104082D01*
X0092687Y0103951D01*
X0092596Y0103822D01*
X0092501Y0103695D01*
X0092404Y0103570D01*
X0092303Y0103448D01*
X0092199Y0103329D01*
X0092092Y0103212D01*
X0091982Y0103098D01*
X0091869Y0102987D01*
X0091754Y0102878D01*
X0091636Y0102773D01*
X0091515Y0102671D01*
X0091392Y0102571D01*
X0091266Y0102475D01*
X0091138Y0102382D01*
X0091008Y0102292D01*
X0090875Y0102206D01*
X0090740Y0102122D01*
X0090604Y0102043D01*
X0090465Y0101966D01*
X0090324Y0101894D01*
X0090182Y0101824D01*
X0090038Y0101759D01*
X0089892Y0101697D01*
X0089745Y0101639D01*
X0089596Y0101584D01*
X0089446Y0101533D01*
X0089295Y0101486D01*
X0089143Y0101443D01*
X0088990Y0101404D01*
X0088835Y0101368D01*
X0088680Y0101337D01*
X0088524Y0101309D01*
X0088368Y0101285D01*
X0088211Y0101265D01*
X0088053Y0101249D01*
X0087896Y0101237D01*
X0087737Y0101229D01*
X0087579Y0101225D01*
X0087421Y0101225D01*
X0087263Y0101229D01*
X0087104Y0101237D01*
X0086947Y0101249D01*
X0086789Y0101265D01*
X0086632Y0101285D01*
X0086476Y0101309D01*
X0086320Y0101337D01*
X0086165Y0101368D01*
X0086010Y0101404D01*
X0085857Y0101443D01*
X0085705Y0101486D01*
X0085554Y0101533D01*
X0085404Y0101584D01*
X0085255Y0101639D01*
X0085108Y0101697D01*
X0084962Y0101759D01*
X0084818Y0101824D01*
X0084676Y0101894D01*
X0084535Y0101966D01*
X0084396Y0102043D01*
X0084260Y0102122D01*
X0084125Y0102206D01*
X0083992Y0102292D01*
X0083862Y0102382D01*
X0083734Y0102475D01*
X0083608Y0102571D01*
X0083485Y0102671D01*
X0083364Y0102773D01*
X0083246Y0102878D01*
X0083131Y0102987D01*
X0083018Y0103098D01*
X0082908Y0103212D01*
X0082801Y0103329D01*
X0082697Y0103448D01*
X0082596Y0103570D01*
X0082499Y0103695D01*
X0082404Y0103822D01*
X0082313Y0103951D01*
X0082224Y0104082D01*
X0082140Y0104216D01*
X0082058Y0104352D01*
X0081980Y0104489D01*
X0081906Y0104629D01*
X0081835Y0104771D01*
X0081767Y0104914D01*
X0081703Y0105059D01*
X0081643Y0105205D01*
X0081587Y0105353D01*
X0081534Y0105502D01*
X0081485Y0105653D01*
X0081440Y0105805D01*
X0081399Y0105958D01*
X0081361Y0106111D01*
X0081328Y0106266D01*
X0081298Y0106422D01*
X0081272Y0106578D01*
X0081251Y0106735D01*
X0081233Y0106892D01*
X0081219Y0107050D01*
X0081209Y0107208D01*
X0081203Y0107366D01*
X0081201Y0107524D01*
X0126201Y0107524D02*
X0126203Y0107682D01*
X0126209Y0107840D01*
X0126219Y0107998D01*
X0126233Y0108156D01*
X0126251Y0108313D01*
X0126272Y0108470D01*
X0126298Y0108626D01*
X0126328Y0108782D01*
X0126361Y0108937D01*
X0126399Y0109090D01*
X0126440Y0109243D01*
X0126485Y0109395D01*
X0126534Y0109546D01*
X0126587Y0109695D01*
X0126643Y0109843D01*
X0126703Y0109989D01*
X0126767Y0110134D01*
X0126835Y0110277D01*
X0126906Y0110419D01*
X0126980Y0110559D01*
X0127058Y0110696D01*
X0127140Y0110832D01*
X0127224Y0110966D01*
X0127313Y0111097D01*
X0127404Y0111226D01*
X0127499Y0111353D01*
X0127596Y0111478D01*
X0127697Y0111600D01*
X0127801Y0111719D01*
X0127908Y0111836D01*
X0128018Y0111950D01*
X0128131Y0112061D01*
X0128246Y0112170D01*
X0128364Y0112275D01*
X0128485Y0112377D01*
X0128608Y0112477D01*
X0128734Y0112573D01*
X0128862Y0112666D01*
X0128992Y0112756D01*
X0129125Y0112842D01*
X0129260Y0112926D01*
X0129396Y0113005D01*
X0129535Y0113082D01*
X0129676Y0113154D01*
X0129818Y0113224D01*
X0129962Y0113289D01*
X0130108Y0113351D01*
X0130255Y0113409D01*
X0130404Y0113464D01*
X0130554Y0113515D01*
X0130705Y0113562D01*
X0130857Y0113605D01*
X0131010Y0113644D01*
X0131165Y0113680D01*
X0131320Y0113711D01*
X0131476Y0113739D01*
X0131632Y0113763D01*
X0131789Y0113783D01*
X0131947Y0113799D01*
X0132104Y0113811D01*
X0132263Y0113819D01*
X0132421Y0113823D01*
X0132579Y0113823D01*
X0132737Y0113819D01*
X0132896Y0113811D01*
X0133053Y0113799D01*
X0133211Y0113783D01*
X0133368Y0113763D01*
X0133524Y0113739D01*
X0133680Y0113711D01*
X0133835Y0113680D01*
X0133990Y0113644D01*
X0134143Y0113605D01*
X0134295Y0113562D01*
X0134446Y0113515D01*
X0134596Y0113464D01*
X0134745Y0113409D01*
X0134892Y0113351D01*
X0135038Y0113289D01*
X0135182Y0113224D01*
X0135324Y0113154D01*
X0135465Y0113082D01*
X0135604Y0113005D01*
X0135740Y0112926D01*
X0135875Y0112842D01*
X0136008Y0112756D01*
X0136138Y0112666D01*
X0136266Y0112573D01*
X0136392Y0112477D01*
X0136515Y0112377D01*
X0136636Y0112275D01*
X0136754Y0112170D01*
X0136869Y0112061D01*
X0136982Y0111950D01*
X0137092Y0111836D01*
X0137199Y0111719D01*
X0137303Y0111600D01*
X0137404Y0111478D01*
X0137501Y0111353D01*
X0137596Y0111226D01*
X0137687Y0111097D01*
X0137776Y0110966D01*
X0137860Y0110832D01*
X0137942Y0110696D01*
X0138020Y0110559D01*
X0138094Y0110419D01*
X0138165Y0110277D01*
X0138233Y0110134D01*
X0138297Y0109989D01*
X0138357Y0109843D01*
X0138413Y0109695D01*
X0138466Y0109546D01*
X0138515Y0109395D01*
X0138560Y0109243D01*
X0138601Y0109090D01*
X0138639Y0108937D01*
X0138672Y0108782D01*
X0138702Y0108626D01*
X0138728Y0108470D01*
X0138749Y0108313D01*
X0138767Y0108156D01*
X0138781Y0107998D01*
X0138791Y0107840D01*
X0138797Y0107682D01*
X0138799Y0107524D01*
X0138797Y0107366D01*
X0138791Y0107208D01*
X0138781Y0107050D01*
X0138767Y0106892D01*
X0138749Y0106735D01*
X0138728Y0106578D01*
X0138702Y0106422D01*
X0138672Y0106266D01*
X0138639Y0106111D01*
X0138601Y0105958D01*
X0138560Y0105805D01*
X0138515Y0105653D01*
X0138466Y0105502D01*
X0138413Y0105353D01*
X0138357Y0105205D01*
X0138297Y0105059D01*
X0138233Y0104914D01*
X0138165Y0104771D01*
X0138094Y0104629D01*
X0138020Y0104489D01*
X0137942Y0104352D01*
X0137860Y0104216D01*
X0137776Y0104082D01*
X0137687Y0103951D01*
X0137596Y0103822D01*
X0137501Y0103695D01*
X0137404Y0103570D01*
X0137303Y0103448D01*
X0137199Y0103329D01*
X0137092Y0103212D01*
X0136982Y0103098D01*
X0136869Y0102987D01*
X0136754Y0102878D01*
X0136636Y0102773D01*
X0136515Y0102671D01*
X0136392Y0102571D01*
X0136266Y0102475D01*
X0136138Y0102382D01*
X0136008Y0102292D01*
X0135875Y0102206D01*
X0135740Y0102122D01*
X0135604Y0102043D01*
X0135465Y0101966D01*
X0135324Y0101894D01*
X0135182Y0101824D01*
X0135038Y0101759D01*
X0134892Y0101697D01*
X0134745Y0101639D01*
X0134596Y0101584D01*
X0134446Y0101533D01*
X0134295Y0101486D01*
X0134143Y0101443D01*
X0133990Y0101404D01*
X0133835Y0101368D01*
X0133680Y0101337D01*
X0133524Y0101309D01*
X0133368Y0101285D01*
X0133211Y0101265D01*
X0133053Y0101249D01*
X0132896Y0101237D01*
X0132737Y0101229D01*
X0132579Y0101225D01*
X0132421Y0101225D01*
X0132263Y0101229D01*
X0132104Y0101237D01*
X0131947Y0101249D01*
X0131789Y0101265D01*
X0131632Y0101285D01*
X0131476Y0101309D01*
X0131320Y0101337D01*
X0131165Y0101368D01*
X0131010Y0101404D01*
X0130857Y0101443D01*
X0130705Y0101486D01*
X0130554Y0101533D01*
X0130404Y0101584D01*
X0130255Y0101639D01*
X0130108Y0101697D01*
X0129962Y0101759D01*
X0129818Y0101824D01*
X0129676Y0101894D01*
X0129535Y0101966D01*
X0129396Y0102043D01*
X0129260Y0102122D01*
X0129125Y0102206D01*
X0128992Y0102292D01*
X0128862Y0102382D01*
X0128734Y0102475D01*
X0128608Y0102571D01*
X0128485Y0102671D01*
X0128364Y0102773D01*
X0128246Y0102878D01*
X0128131Y0102987D01*
X0128018Y0103098D01*
X0127908Y0103212D01*
X0127801Y0103329D01*
X0127697Y0103448D01*
X0127596Y0103570D01*
X0127499Y0103695D01*
X0127404Y0103822D01*
X0127313Y0103951D01*
X0127224Y0104082D01*
X0127140Y0104216D01*
X0127058Y0104352D01*
X0126980Y0104489D01*
X0126906Y0104629D01*
X0126835Y0104771D01*
X0126767Y0104914D01*
X0126703Y0105059D01*
X0126643Y0105205D01*
X0126587Y0105353D01*
X0126534Y0105502D01*
X0126485Y0105653D01*
X0126440Y0105805D01*
X0126399Y0105958D01*
X0126361Y0106111D01*
X0126328Y0106266D01*
X0126298Y0106422D01*
X0126272Y0106578D01*
X0126251Y0106735D01*
X0126233Y0106892D01*
X0126219Y0107050D01*
X0126209Y0107208D01*
X0126203Y0107366D01*
X0126201Y0107524D01*
D17*
X0160000Y0134524D02*
X0160000Y0140524D01*
X0170000Y0140524D02*
X0170000Y0134524D01*
X0180000Y0134524D02*
X0180000Y0140524D01*
X0120000Y0154524D02*
X0120000Y0160524D01*
X0110000Y0160524D02*
X0110000Y0154524D01*
X0100000Y0154524D02*
X0100000Y0160524D01*
X0065000Y0140524D02*
X0065000Y0134524D01*
X0055000Y0134524D02*
X0055000Y0140524D01*
X0045000Y0140524D02*
X0045000Y0134524D01*
D18*
X0045000Y0137524D02*
X0044100Y0137674D01*
X0039900Y0137674D01*
X0015750Y0161824D01*
X0015000Y0162524D01*
X0015750Y0162874D01*
X0039900Y0187024D01*
X0039900Y0241624D01*
X0040000Y0242524D01*
X0055000Y0222524D02*
X0055650Y0222724D01*
X0105000Y0222724D01*
X0105000Y0152374D01*
X0107100Y0150274D01*
X0107100Y0142924D01*
X0107500Y0142524D01*
X0107100Y0141874D01*
X0107100Y0137674D01*
X0102900Y0133474D01*
X0102500Y0132524D01*
X0101850Y0132424D01*
X0093450Y0132424D01*
X0092500Y0132524D01*
X0088200Y0127174D02*
X0124950Y0127174D01*
X0133350Y0135574D01*
X0139650Y0129274D01*
X0172200Y0129274D01*
X0179550Y0136624D01*
X0180000Y0137524D01*
X0180600Y0137674D01*
X0180600Y0160774D01*
X0204750Y0184924D01*
X0204750Y0187024D01*
X0205000Y0187524D01*
X0170000Y0182524D02*
X0170100Y0181774D01*
X0170100Y0137674D01*
X0170000Y0137524D01*
X0160650Y0137674D02*
X0160000Y0137524D01*
X0160650Y0137674D02*
X0160650Y0205924D01*
X0184800Y0230074D01*
X0184800Y0241624D01*
X0185000Y0242524D01*
X0170000Y0222524D02*
X0169050Y0222724D01*
X0160650Y0222724D01*
X0160650Y0244774D01*
X0150150Y0255274D01*
X0150150Y0272074D01*
X0150000Y0272524D01*
X0154350Y0242674D02*
X0126000Y0242674D01*
X0125000Y0242524D01*
X0124950Y0241624D01*
X0119700Y0236374D01*
X0092400Y0236374D01*
X0087150Y0241624D01*
X0070350Y0241624D01*
X0070000Y0242524D01*
X0105000Y0222724D02*
X0109200Y0222724D01*
X0110000Y0222524D01*
X0110250Y0222724D01*
X0160650Y0222724D01*
X0155000Y0242524D02*
X0154350Y0242674D01*
X0110000Y0182524D02*
X0110250Y0181774D01*
X0110250Y0157624D01*
X0110000Y0157524D01*
X0110250Y0156574D01*
X0110250Y0149224D01*
X0116550Y0142924D01*
X0117500Y0142524D01*
X0120750Y0156574D02*
X0120000Y0157524D01*
X0120750Y0156574D02*
X0133350Y0143974D01*
X0133350Y0135574D01*
X0097500Y0142524D02*
X0096600Y0142924D01*
X0069300Y0142924D01*
X0067200Y0145024D01*
X0055650Y0145024D01*
X0055650Y0137674D01*
X0055000Y0137524D01*
X0055650Y0145024D02*
X0055650Y0181774D01*
X0055000Y0182524D01*
X0065000Y0137524D02*
X0065100Y0136624D01*
X0078750Y0136624D01*
X0088200Y0127174D01*
M02*
