G75*
%MOIN*%
%OFA0B0*%
%FSLAX25Y25*%
%IPPOS*%
%LPD*%
%AMOC8*
5,1,8,0,0,1.08239X$1,22.5*
%
%ADD10C,0.00600*%
D10*
X0065935Y0067824D02*
X0065935Y0071026D01*
X0067003Y0072094D01*
X0070206Y0072094D01*
X0070206Y0067824D01*
X0072381Y0067824D02*
X0072381Y0071026D01*
X0073448Y0072094D01*
X0075583Y0072094D01*
X0075583Y0069959D02*
X0072381Y0069959D01*
X0072381Y0067824D02*
X0075583Y0067824D01*
X0076651Y0068891D01*
X0075583Y0069959D01*
X0078826Y0071026D02*
X0078826Y0067824D01*
X0080961Y0067824D02*
X0080961Y0071026D01*
X0079894Y0072094D01*
X0078826Y0071026D01*
X0080961Y0071026D02*
X0082029Y0072094D01*
X0083097Y0072094D01*
X0083097Y0067824D01*
X0085272Y0067824D02*
X0088474Y0067824D01*
X0089542Y0068891D01*
X0089542Y0071026D01*
X0088474Y0072094D01*
X0085272Y0072094D01*
X0085272Y0074229D02*
X0085272Y0067824D01*
X0091704Y0067824D02*
X0093839Y0067824D01*
X0092771Y0067824D02*
X0092771Y0074229D01*
X0093839Y0074229D01*
X0096014Y0071026D02*
X0097082Y0072094D01*
X0099217Y0072094D01*
X0100285Y0071026D01*
X0100285Y0068891D01*
X0099217Y0067824D01*
X0097082Y0067824D01*
X0096014Y0068891D01*
X0096014Y0071026D01*
X0102460Y0071026D02*
X0104595Y0071026D01*
X0102460Y0071026D02*
X0102460Y0068891D01*
X0103527Y0067824D01*
X0105662Y0067824D01*
X0106730Y0068891D01*
X0106730Y0073162D01*
X0105662Y0074229D01*
X0103527Y0074229D01*
X0102460Y0073162D01*
X0101359Y0081526D02*
X0097088Y0081526D01*
X0088468Y0079391D02*
X0084197Y0083662D01*
X0084197Y0079391D01*
X0085265Y0078324D01*
X0087400Y0078324D01*
X0088468Y0079391D01*
X0088468Y0083662D01*
X0087400Y0084729D01*
X0085265Y0084729D01*
X0084197Y0083662D01*
X0082022Y0084729D02*
X0077752Y0084729D01*
X0077752Y0083662D01*
X0082022Y0079391D01*
X0082022Y0078324D01*
X0075577Y0078324D02*
X0071306Y0084729D01*
X0069131Y0083662D02*
X0068064Y0084729D01*
X0065929Y0084729D01*
X0064861Y0083662D01*
X0064861Y0082594D01*
X0065929Y0081526D01*
X0064861Y0080459D01*
X0064861Y0079391D01*
X0065929Y0078324D01*
X0068064Y0078324D01*
X0069131Y0079391D01*
X0066996Y0081526D02*
X0065929Y0081526D01*
X0062686Y0079391D02*
X0058415Y0083662D01*
X0058415Y0079391D01*
X0059483Y0078324D01*
X0061618Y0078324D01*
X0062686Y0079391D01*
X0062686Y0083662D01*
X0061618Y0084729D01*
X0059483Y0084729D01*
X0058415Y0083662D01*
X0056240Y0078324D02*
X0051970Y0084729D01*
X0049795Y0083662D02*
X0048727Y0084729D01*
X0046592Y0084729D01*
X0045524Y0083662D01*
X0045524Y0082594D01*
X0049795Y0078324D01*
X0045524Y0078324D01*
X0043349Y0079391D02*
X0039079Y0083662D01*
X0039079Y0079391D01*
X0040147Y0078324D01*
X0042282Y0078324D01*
X0043349Y0079391D01*
X0043349Y0083662D01*
X0042282Y0084729D01*
X0040147Y0084729D01*
X0039079Y0083662D01*
X0036904Y0082594D02*
X0034769Y0084729D01*
X0034769Y0078324D01*
X0036904Y0078324D02*
X0032633Y0078324D01*
X0030458Y0079391D02*
X0030458Y0081526D01*
X0027256Y0081526D01*
X0026188Y0080459D01*
X0026188Y0079391D01*
X0027256Y0078324D01*
X0029391Y0078324D01*
X0030458Y0079391D01*
X0030458Y0081526D02*
X0028323Y0083662D01*
X0026188Y0084729D01*
X0109979Y0083662D02*
X0109979Y0079391D01*
X0111047Y0078324D01*
X0113182Y0078324D01*
X0114250Y0079391D01*
X0109979Y0083662D01*
X0111047Y0084729D01*
X0113182Y0084729D01*
X0114250Y0083662D01*
X0114250Y0079391D01*
X0116405Y0079391D02*
X0116405Y0078324D01*
X0117473Y0078324D01*
X0117473Y0079391D01*
X0116405Y0079391D01*
X0119648Y0078324D02*
X0123918Y0078324D01*
X0121783Y0078324D02*
X0121783Y0084729D01*
X0123918Y0082594D01*
X0122850Y0072094D02*
X0120715Y0072094D01*
X0119648Y0071026D01*
X0119648Y0069959D01*
X0123918Y0069959D01*
X0123918Y0071026D02*
X0122850Y0072094D01*
X0123918Y0071026D02*
X0123918Y0068891D01*
X0122850Y0067824D01*
X0120715Y0067824D01*
X0117473Y0067824D02*
X0115337Y0067824D01*
X0116405Y0067824D02*
X0116405Y0074229D01*
X0117473Y0074229D01*
X0126093Y0072094D02*
X0126093Y0067824D01*
X0129296Y0067824D01*
X0130364Y0068891D01*
X0130364Y0072094D01*
X0132539Y0071026D02*
X0132539Y0067824D01*
X0134674Y0067824D02*
X0134674Y0071026D01*
X0133606Y0072094D01*
X0132539Y0071026D01*
X0134674Y0071026D02*
X0135741Y0072094D01*
X0136809Y0072094D01*
X0136809Y0067824D01*
X0138984Y0067824D02*
X0138984Y0071026D01*
X0140052Y0072094D01*
X0142187Y0072094D01*
X0142187Y0069959D02*
X0138984Y0069959D01*
X0138984Y0067824D02*
X0142187Y0067824D01*
X0143255Y0068891D01*
X0142187Y0069959D01*
X0145430Y0069959D02*
X0145430Y0068891D01*
X0146497Y0067824D01*
X0148632Y0067824D01*
X0149700Y0068891D01*
X0148632Y0071026D02*
X0146497Y0071026D01*
X0145430Y0069959D01*
X0145430Y0073162D02*
X0146497Y0074229D01*
X0148632Y0074229D01*
X0149700Y0073162D01*
X0149700Y0072094D01*
X0148632Y0071026D01*
X0149700Y0078324D02*
X0149700Y0084729D01*
X0146497Y0084729D01*
X0145430Y0083662D01*
X0145430Y0081526D01*
X0146497Y0080459D01*
X0149700Y0080459D01*
X0147565Y0080459D02*
X0145430Y0078324D01*
X0143255Y0079391D02*
X0143255Y0081526D01*
X0142187Y0082594D01*
X0140052Y0082594D01*
X0138984Y0081526D01*
X0138984Y0080459D01*
X0143255Y0080459D01*
X0143255Y0079391D02*
X0142187Y0078324D01*
X0140052Y0078324D01*
X0136809Y0082594D02*
X0134674Y0078324D01*
X0132539Y0082594D01*
M02*
