%
M48
M72
T01C0.03937
T02C0.04000
T03C0.04400
T04C0.05118
T05C0.12598
%
T01
X92500Y132524
X102500Y132524
X97500Y142524
X107500Y142524
X112500Y132524
X117500Y142524
X122500Y132524
X127500Y142524
T02
X15000Y102524
X15000Y112524
X15000Y122524
X15000Y132524
X15000Y142524
X15000Y152524
X15000Y162524
X15000Y172524
X15000Y182524
X15000Y192524
X15000Y207524
X15000Y217524
X15000Y227524
X15000Y237524
X15000Y247524
X15000Y257524
X15000Y267524
X15000Y277524
X40000Y242524
X70000Y242524
X95000Y242524
X125000Y242524
X155000Y242524
X185000Y242524
X205000Y247524
X205000Y237524
X205000Y227524
X205000Y207524
X205000Y197524
X205000Y187524
X205000Y177524
X205000Y167524
X205000Y157524
X205000Y147524
X205000Y137524
X180000Y137524
X170000Y137524
X160000Y137524
X120000Y157524
X110000Y157524
X100000Y157524
X65000Y137524
X55000Y137524
X45000Y137524
X205000Y257524
X205000Y267524
X205000Y277524
T03
X170000Y222524
X170000Y182524
X110000Y182524
X110000Y222524
X55000Y222524
X55000Y182524
T04
X150000Y272524
X169685Y272524
T05
X132500Y107524
X87500Y107524
M30
